<?xml version="1.0" standalone="no"?>
<!DOCTYPE svg PUBLIC "-//W3C//DTD SVG 1.1//EN" "http://www.w3.org/Graphics/SVG/1.1/DTD/svg11.dtd">
<svg xmlns="http://www.w3.org/2000/svg" xmlns:xlink="http://www.w3.org/1999/xlink" width="810" zoomAndPan="magnify" viewBox="0 0 810 809.999993" height="810" preserveAspectRatio="xMidYMid meet" version="1.0"><defs><g/></defs><g fill="#000000" fill-opacity="1"><g transform="translate(0.0000035, 515.02797)"><g><path d="M 130.140625 -130.578125 C 136.710938 -128.785156 143.960938 -126.394531 151.890625 -123.40625 C 159.816406 -120.414062 167.445312 -116.523438 174.78125 -111.734375 C 182.113281 -106.953125 188.097656 -100.894531 192.734375 -93.5625 C 197.367188 -86.226562 199.6875 -77.03125 199.6875 -65.96875 C 199.6875 -55.5 197.144531 -44.800781 192.0625 -33.875 C 186.976562 -22.957031 179.125 -13.832031 168.5 -6.5 C 157.875 0.820312 144.1875 4.484375 127.4375 4.484375 C 110.082031 4.484375 91.984375 -0.078125 73.140625 -9.203125 C 54.296875 -18.328125 38.289062 -31.113281 25.125 -47.5625 L 25.125 -64.625 C 32.90625 -58.9375 46.21875 -53.472656 65.0625 -48.234375 C 83.914062 -43.003906 105.609375 -40.390625 130.140625 -40.390625 C 137.015625 -40.390625 142.84375 -42.851562 147.625 -47.78125 C 152.414062 -52.71875 154.8125 -58.476562 154.8125 -65.0625 C 154.8125 -72.539062 152.039062 -77.925781 146.5 -81.21875 C 140.96875 -84.507812 134.238281 -86.976562 126.3125 -88.625 C 118.382812 -90.269531 110.832031 -92.140625 103.65625 -94.234375 C 94.082031 -97.222656 85.03125 -101.632812 76.5 -107.46875 C 67.976562 -113.300781 61.023438 -120.40625 55.640625 -128.78125 C 50.253906 -137.15625 47.5625 -146.429688 47.5625 -156.609375 C 47.5625 -165.285156 49.507812 -172.914062 53.40625 -179.5 L 13.46875 -179.5 L 13.46875 -228.859375 L 222.125 -228.859375 L 222.125 -179.5 L 114.875 -179.5 C 108 -179.195312 102.539062 -177.023438 98.5 -172.984375 C 94.457031 -168.941406 92.4375 -164.53125 92.4375 -159.75 C 92.4375 -154.363281 94.753906 -149.648438 99.390625 -145.609375 C 104.023438 -141.578125 109.332031 -138.363281 115.3125 -135.96875 C 121.300781 -133.570312 126.242188 -131.773438 130.140625 -130.578125 Z M 130.140625 -130.578125 "/></g></g></g><g fill="#000000" fill-opacity="1"><g transform="translate(235.58951, 515.02797)"><g><path d="M 179.5 -228.859375 L 224.359375 -228.859375 L 224.359375 -139.109375 L 273.734375 -139.109375 L 273.734375 -89.75 L 224.359375 -89.75 L 224.359375 0 L 179.5 0 L 179.5 -89.75 L 107.703125 -89.75 L 107.703125 0 L 62.828125 0 L 62.828125 -179.5 L 13.46875 -179.5 L 13.46875 -228.859375 L 107.703125 -228.859375 L 107.703125 -139.109375 L 179.5 -139.109375 Z M 179.5 -228.859375 "/></g></g></g><g fill="#000000" fill-opacity="1"><g transform="translate(522.784319, 515.02797)"><g><path d="M 248.59375 -65.0625 C 248.59375 -53.09375 244.703125 -40.675781 236.921875 -27.8125 C 229.148438 -14.957031 218.679688 -4.191406 205.515625 4.484375 L 188.46875 4.484375 C 191.15625 1.191406 193.617188 -4.265625 195.859375 -11.890625 C 198.109375 -19.515625 199.976562 -27.664062 201.46875 -36.34375 C 202.96875 -45.019531 203.71875 -52.5 203.71875 -58.78125 C 203.71875 -70.445312 200.503906 -78.523438 194.078125 -83.015625 C 187.648438 -87.503906 179.644531 -89.75 170.0625 -89.75 L 107.703125 -89.75 L 107.703125 0 L 62.828125 0 L 62.828125 -179.5 L 13.46875 -179.5 L 13.46875 -228.859375 L 273.734375 -228.859375 L 273.734375 -179.5 L 234.234375 -179.5 C 237.828125 -173.207031 239.625 -166.773438 239.625 -160.203125 C 239.625 -150.921875 237.453125 -142.316406 233.109375 -134.390625 C 228.773438 -126.460938 223.019531 -119.660156 215.84375 -113.984375 C 225.71875 -108.296875 233.644531 -101.1875 239.625 -92.65625 C 245.601562 -84.132812 248.59375 -74.9375 248.59375 -65.0625 Z M 107.703125 -139.109375 L 170.0625 -139.109375 C 176.945312 -139.109375 182.78125 -141.050781 187.5625 -144.9375 C 192.351562 -148.832031 194.75 -153.617188 194.75 -159.296875 C 194.75 -164.984375 192.351562 -169.769531 187.5625 -173.65625 C 182.78125 -177.550781 176.945312 -179.5 170.0625 -179.5 L 107.703125 -179.5 Z M 107.703125 -139.109375 "/></g></g></g></svg>